/* XPM */
static char * close_prelight_xpm[] = {
"18 28 88 1",
" 	c None",
".	c #21252B",
"+	c #353B48",
"@	c #323644",
"#	c #2F3340",
"$	c #2E313E",
"%	c #2D313D",
"&	c #2D303C",
"*	c #1E2027",
"=	c #101113",
"-	c #0C0C0F",
";	c #1E2026",
">	c #21232B",
",	c #17181D",
"'	c #1C1E25",
")	c #1B1D25",
"!	c #17191D",
"~	c #1E2028",
"{	c #15171C",
"]	c #21232C",
"^	c #21242D",
"/	c #16171C",
"(	c #16181D",
"_	c #22242E",
":	c #64282F",
"<	c #EA3233",
"[	c #C02E31",
"}	c #BC2E31",
"|	c #68292F",
"1	c #6B292F",
"2	c #FF3333",
"3	c #F73233",
"4	c #C12E31",
"5	c #BD2E31",
"6	c #F63233",
"7	c #6F292F",
"8	c #31252D",
"9	c #812B30",
"0	c #842A2F",
"a	c #32242D",
"b	c #F93232",
"c	c #F83232",
"d	c #842A30",
"e	c #33252E",
"f	c #17181E",
"g	c #832A30",
"h	c #852B30",
"i	c #3C262E",
"j	c #B22E31",
"k	c #B42D31",
"l	c #3F252D",
"m	c #42262E",
"n	c #AD2E31",
"o	c #F53232",
"p	c #892A2F",
"q	c #F33233",
"r	c #AE2D31",
"s	c #43262E",
"t	c #44272F",
"u	c #A92D31",
"v	c #EF3232",
"w	c #8C2B2F",
"x	c #8B2B30",
"y	c #EE3233",
"z	c #AB2D30",
"A	c #46262E",
"B	c #EC3132",
"C	c #912B30",
"D	c #8F2B30",
"E	c #EA3132",
"F	c #52272F",
"G	c #B32D31",
"H	c #942C30",
"I	c #922B30",
"J	c #54272E",
"K	c #20222A",
"L	c #17191E",
"M	c #272932",
"N	c #1C1D23",
"O	c #1C1E26",
"P	c #1C1E24",
"Q	c #363A45",
"R	c #2A2C34",
"S	c #131418",
"T	c #363A48",
"U	c #424653",
"V	c #4D505C",
"W	c #4F525E",
"..................",
"++++++++++++++++++",
"@@@@@@@@@@@@@@@@@@",
"@@@@@@@@@@@@@@@@@@",
"@@@@@@@@@@@@@@@@@@",
"@@@@@@@@@@@@@@@@@@",
"@#$%%%%%%%%%%%%$#@",
"&*=------------=;&",
">,'))))))))))))'!>",
"~{]^^^^^^^^^^^^]/*",
"~(_:<[______}<|_(*",
"~(_1234____5627_(*",
"~(_8923[__}620a_(*",
"~(__a92b44c2de__f*",
"~(___8g2222ha___f*",
"~(___ij2222kl___f~",
"~(__mn2oppq2rs__f~",
"~(_tu2vw__xy2zA_f~",
"~(_12BC____DE27_f~",
"~(_FGH______IGJ_f~",
"Kf^____________^LK",
"MN)OOOOOOOOOOOO)PM",
"QR/SSSSSSSSSSSS/RQ",
"TUVWWWWWWWWWWWWVUT",
"@@@@@@@@@@@@@@@@@@",
"@@@@@@@@@@@@@@@@@@",
"@@@@@@@@@@@@@@@@@@",
"@@@@@@@@@@@@@@@@@@"};
