/* XPM */
static char * close_active_xpm[] = {
"18 28 87 1",
" 	c None",
".	c #21252B",
"+	c #353B48",
"@	c #323644",
"#	c #2F3340",
"$	c #2E313E",
"%	c #2D313D",
"&	c #2D303C",
"*	c #1E2027",
"=	c #101113",
"-	c #0C0C0F",
";	c #1E2026",
">	c #21232B",
",	c #17181D",
"'	c #1C1E25",
")	c #1B1D25",
"!	c #17191D",
"~	c #1E2028",
"{	c #15171C",
"]	c #21232C",
"^	c #21242D",
"/	c #16171C",
"(	c #16181D",
"_	c #22242E",
":	c #606269",
"<	c #DDDEDF",
"[	c #B6B6B9",
"}	c #B2B3B6",
"|	c #63656B",
"1	c #66686E",
"2	c #F1F1F1",
"3	c #EAEAEB",
"4	c #B7B7BA",
"5	c #B3B4B7",
"6	c #E9E9EA",
"7	c #6A6C72",
"8	c #30333B",
"9	c #7B7D82",
"0	c #7E7F84",
"a	c #31333C",
"b	c #ECECEC",
"c	c #EBEBEB",
"d	c #7E7F85",
"e	c #32343D",
"f	c #17181E",
"g	c #7D7E84",
"h	c #7E8085",
"i	c #3B3E46",
"j	c #A9AAAD",
"k	c #ABABAF",
"l	c #3D3F47",
"m	c #40424A",
"n	c #A4A5A8",
"o	c #E7E7E7",
"p	c #828388",
"q	c #E5E5E6",
"r	c #A5A6AA",
"s	c #41444C",
"t	c #A0A1A5",
"u	c #E2E3E3",
"v	c #86888C",
"w	c #85868B",
"x	c #E1E1E2",
"y	c #A2A3A6",
"z	c #43454D",
"A	c #DFDFE0",
"B	c #8A8B90",
"C	c #88898E",
"D	c #DDDDDE",
"E	c #4F5159",
"F	c #AAAAAE",
"G	c #8C8E92",
"H	c #8B8C91",
"I	c #51535A",
"J	c #20222A",
"K	c #17191E",
"L	c #272932",
"M	c #1C1D23",
"N	c #1C1E26",
"O	c #1C1E24",
"P	c #363A45",
"Q	c #2A2C34",
"R	c #131418",
"S	c #363A48",
"T	c #424653",
"U	c #4D505C",
"V	c #4F525E",
"..................",
"++++++++++++++++++",
"@@@@@@@@@@@@@@@@@@",
"@@@@@@@@@@@@@@@@@@",
"@@@@@@@@@@@@@@@@@@",
"@@@@@@@@@@@@@@@@@@",
"@#$%%%%%%%%%%%%$#@",
"&*=------------=;&",
">,'))))))))))))'!>",
"~{]^^^^^^^^^^^^]/*",
"~(_:<[______}<|_(*",
"~(_1234____5627_(*",
"~(_8923[__5620a_(*",
"~(__a92b44c2de__f*",
"~(___8g2222ha___f*",
"~(___ij2222kl___f~",
"~(__mn2oppq2rs__f~",
"~(_st2uv__wx2yz_f~",
"~(_12AB____CD27_f~",
"~(_EFG______HFI_f~",
"Jf^____________^KJ",
"LM)NNNNNNNNNNNN)OL",
"PQ/RRRRRRRRRRRR/QP",
"STUVVVVVVVVVVVVUTS",
"@@@@@@@@@@@@@@@@@@",
"@@@@@@@@@@@@@@@@@@",
"@@@@@@@@@@@@@@@@@@",
"@@@@@@@@@@@@@@@@@@"};
