/* XPM */
static char * close_inactive_xpm[] = {
"18 28 84 1",
" 	c None",
".	c #21252B",
"+	c #353B48",
"@	c #323644",
"#	c #2F3340",
"$	c #2E313E",
"%	c #2D313D",
"&	c #2D303C",
"*	c #1E2027",
"=	c #101113",
"-	c #0C0C0F",
";	c #1E2026",
">	c #21232B",
",	c #17181D",
"'	c #1C1E25",
")	c #1B1D25",
"!	c #17191D",
"~	c #1E2028",
"{	c #15171C",
"]	c #21232C",
"^	c #21242D",
"/	c #16171C",
"(	c #16181D",
"_	c #22242E",
":	c #4C4E55",
"<	c #A3A4A5",
"[	c #88888B",
"}	c #86878A",
"|	c #4F5157",
"1	c #515359",
"2	c #B1B1B1",
"3	c #ACACAD",
"4	c #89898C",
"5	c #ABABAC",
"6	c #54565C",
"7	c #2C2F37",
"8	c #5F6166",
"9	c #616267",
"0	c #2C2E37",
"a	c #ADADAD",
"b	c #ACACAC",
"c	c #616268",
"d	c #2D2F38",
"e	c #17181E",
"f	c #2B2E36",
"g	c #616368",
"h	c #33363E",
"i	c #7F8083",
"j	c #808084",
"k	c #34363E",
"l	c #363840",
"m	c #7C7D80",
"n	c #AAAAAA",
"o	c #64656A",
"p	c #A9A9AA",
"q	c #7C7D81",
"r	c #373A42",
"s	c #797A7E",
"t	c #A6A7A7",
"u	c #66686C",
"v	c #66676C",
"w	c #A6A6A7",
"x	c #7B7C7F",
"y	c #393B43",
"z	c #A4A4A5",
"A	c #6A6B70",
"B	c #68696E",
"C	c #A3A3A4",
"D	c #41434B",
"E	c #6B6D71",
"F	c #42444B",
"G	c #20222A",
"H	c #17191E",
"I	c #272932",
"J	c #1C1D23",
"K	c #1C1E26",
"L	c #1C1E24",
"M	c #363A45",
"N	c #2A2C34",
"O	c #131418",
"P	c #363A48",
"Q	c #424653",
"R	c #4D505C",
"S	c #4F525E",
"..................",
"++++++++++++++++++",
"@@@@@@@@@@@@@@@@@@",
"@@@@@@@@@@@@@@@@@@",
"@@@@@@@@@@@@@@@@@@",
"@@@@@@@@@@@@@@@@@@",
"@#$%%%%%%%%%%%%$#@",
"&*=------------=;&",
">,'))))))))))))'!>",
"~{]^^^^^^^^^^^^]/*",
"~(_:<[______}<|_(*",
"~(_1234____}526_(*",
"~(_7823[__}5290_(*",
"~(__082a44b2cd__e*",
"~(___fc2222g0___e*",
"~(___hi2222jk___e~",
"~(__lm2noop2qr__e~",
"~(_rs2tu__vw2xy_e~",
"~(_12zA____BC26_e~",
"~(_DjE______AjF_e~",
"Ge^____________^HG",
"IJ)KKKKKKKKKKKK)LI",
"MN/OOOOOOOOOOOO/NM",
"PQRSSSSSSSSSSSSRQP",
"@@@@@@@@@@@@@@@@@@",
"@@@@@@@@@@@@@@@@@@",
"@@@@@@@@@@@@@@@@@@",
"@@@@@@@@@@@@@@@@@@"};
