/* XPM */
static char * close_pressed_xpm[] = {
"18 28 88 1",
" 	c None",
".	c #21252B",
"+	c #353B48",
"@	c #323644",
"#	c #2F3340",
"$	c #2E313E",
"%	c #2D313D",
"&	c #2D303C",
"*	c #1E2027",
"=	c #101113",
"-	c #0C0C0F",
";	c #1E2026",
">	c #21232B",
",	c #17181D",
"'	c #1C1E25",
")	c #1B1D25",
"!	c #17191D",
"~	c #1E2028",
"{	c #15171C",
"]	c #21232C",
"^	c #21242D",
"/	c #16171C",
"(	c #16181D",
"_	c #22242E",
":	c #55252C",
"<	c #BB2A2B",
"[	c #9B282B",
"}	c #98282B",
"|	c #57262C",
"1	c #5A262C",
"2	c #CC2A2A",
"3	c #C6292A",
"4	c #9C282B",
"5	c #99282B",
"6	c #C5292A",
"7	c #5D262C",
"8	c #2D252D",
"9	c #6B272C",
"0	c #9B272A",
"a	c #6D262B",
"b	c #2E242D",
"c	c #C82929",
"d	c #C72929",
"e	c #6D262C",
"f	c #2F242D",
"g	c #17181E",
"h	c #6C262C",
"i	c #6E262B",
"j	c #36252D",
"k	c #91282B",
"l	c #92272B",
"m	c #38242C",
"n	c #3A252D",
"o	c #8D282B",
"p	c #C42A2A",
"q	c #71262B",
"r	c #C2292A",
"s	c #8E272B",
"t	c #3B252D",
"u	c #3C252D",
"v	c #8A272B",
"w	c #BF2A2A",
"x	c #74272B",
"y	c #73272C",
"z	c #BF292A",
"A	c #8B282B",
"B	c #3D242C",
"C	c #BD292A",
"D	c #78272C",
"E	c #76262B",
"F	c #BC292A",
"G	c #46252D",
"H	c #91272B",
"I	c #79272B",
"J	c #49252C",
"K	c #20222A",
"L	c #17191E",
"M	c #272932",
"N	c #1C1D23",
"O	c #1C1E26",
"P	c #1C1E24",
"Q	c #363A45",
"R	c #2A2C34",
"S	c #131418",
"T	c #363A48",
"U	c #424653",
"V	c #4D505C",
"W	c #4F525E",
"..................",
"++++++++++++++++++",
"@@@@@@@@@@@@@@@@@@",
"@@@@@@@@@@@@@@@@@@",
"@@@@@@@@@@@@@@@@@@",
"@@@@@@@@@@@@@@@@@@",
"@#$%%%%%%%%%%%%$#@",
"&*=------------=;&",
">,'))))))))))))'!>",
"~{]^^^^^^^^^^^^]/*",
"~(_:<[______}<|_(*",
"~(_1234____5627_(*",
"~(_89230__562ab_(*",
"~(__b92c44d2ef__g*",
"~(___8h2222ib___g*",
"~(___jk2222lm___g~",
"~(__no2pqqr2st__g~",
"~(_uv2wx__yz2AB_g~",
"~(_12CD____EF27_g~",
"~(_GHI______DHJ_g~",
"Kg^____________^LK",
"MN)OOOOOOOOOOOO)PM",
"QR/SSSSSSSSSSSS/RQ",
"TUVWWWWWWWWWWWWVUT",
"@@@@@@@@@@@@@@@@@@",
"@@@@@@@@@@@@@@@@@@",
"@@@@@@@@@@@@@@@@@@",
"@@@@@@@@@@@@@@@@@@"};
