/* XPM */
static char * hide_inactive_xpm[] = {
"18 28 47 1",
" 	c None",
".	c #21252B",
"+	c #353B48",
"@	c #323644",
"#	c #2F3340",
"$	c #2E313E",
"%	c #2D313D",
"&	c #2D303C",
"*	c #1E2027",
"=	c #101113",
"-	c #0C0C0F",
";	c #1E2026",
">	c #21232B",
",	c #17181D",
"'	c #1C1E25",
")	c #1B1D25",
"!	c #17191D",
"~	c #1E2028",
"{	c #15171C",
"]	c #21232C",
"^	c #21242D",
"/	c #16171C",
"(	c #16181D",
"_	c #22242E",
":	c #17181E",
"<	c #41434B",
"[	c #808084",
"}	c #42444B",
"|	c #515359",
"1	c #B1B1B1",
"2	c #54565C",
"3	c #373A42",
"4	c #64656A",
"5	c #393B43",
"6	c #20222A",
"7	c #17191E",
"8	c #272932",
"9	c #1C1D23",
"0	c #1C1E26",
"a	c #1C1E24",
"b	c #363A45",
"c	c #2A2C34",
"d	c #131418",
"e	c #363A48",
"f	c #424653",
"g	c #4D505C",
"h	c #4F525E",
"..................",
"++++++++++++++++++",
"@@@@@@@@@@@@@@@@@@",
"@@@@@@@@@@@@@@@@@@",
"@@@@@@@@@@@@@@@@@@",
"@@@@@@@@@@@@@@@@@@",
"@#$%%%%%%%%%%%%$#@",
"&*=------------=;&",
">,'))))))))))))'!>",
"~{]^^^^^^^^^^^^]/*",
"~(______________(*",
"~(______________(*",
"~(______________(*",
"~(______________:*",
"~(_<[[[[[[[[[[}_:*",
"~(_|11111111112_:~",
"~(_344444444445_:~",
"~(______________:~",
"~(______________:~",
"~(______________:~",
"6:^____________^76",
"89)000000000000)a8",
"bc/dddddddddddd/cb",
"efghhhhhhhhhhhhgfe",
"@@@@@@@@@@@@@@@@@@",
"@@@@@@@@@@@@@@@@@@",
"@@@@@@@@@@@@@@@@@@",
"@@@@@@@@@@@@@@@@@@"};
