/* XPM */
static char * maximize_pressed_xpm[] = {
"18 28 59 1",
" 	c None",
".	c #21252B",
"+	c #353B48",
"@	c #323644",
"#	c #2F3340",
"$	c #2E313E",
"%	c #2D313D",
"&	c #2D303C",
"*	c #1E2027",
"=	c #101113",
"-	c #0C0C0F",
";	c #1E2026",
">	c #21232B",
",	c #17181D",
"'	c #1C1E25",
")	c #1B1D25",
"!	c #17191D",
"~	c #1E2028",
"{	c #15171C",
"]	c #21232C",
"^	c #21242D",
"/	c #16171C",
"(	c #16181D",
"_	c #22242E",
":	c #253862",
"<	c #2E63CB",
"[	c #263A64",
"}	c #263B67",
"|	c #2F67D7",
"1	c #2F63CC",
"2	c #263C6A",
"3	c #2F66D6",
"4	c #2C58B0",
"5	c #24314F",
"6	c #2D57AE",
"7	c #2C55A8",
"8	c #2C54A6",
"9	c #17181E",
"0	c #2E5BB8",
"a	c #284276",
"b	c #2D5AB7",
"c	c #3068D8",
"d	c #3065D1",
"e	c #243354",
"f	c #2B509F",
"g	c #253455",
"h	c #20222A",
"i	c #17191E",
"j	c #272932",
"k	c #1C1D23",
"l	c #1C1E26",
"m	c #1C1E24",
"n	c #363A45",
"o	c #2A2C34",
"p	c #131418",
"q	c #363A48",
"r	c #424653",
"s	c #4D505C",
"t	c #4F525E",
"..................",
"++++++++++++++++++",
"@@@@@@@@@@@@@@@@@@",
"@@@@@@@@@@@@@@@@@@",
"@@@@@@@@@@@@@@@@@@",
"@@@@@@@@@@@@@@@@@@",
"@#$%%%%%%%%%%%%$#@",
"&*=------------=;&",
">,'))))))))))))'!>",
"~{]^^^^^^^^^^^^]/*",
"~(_:<<<<<<<<<<[_(*",
"~(_}|11111111|2_(*",
"~(_}34555555632_(*",
"~(_}37______832_9*",
"~(_}37______832_9*",
"~(_}37______832_9~",
"~(_}37______832_9~",
"~(_}30aaaaaab32_9~",
"~(_}cddddddddc2_9~",
"~(_effffffffffg_9~",
"h9^____________^ih",
"jk)llllllllllll)mj",
"no/pppppppppppp/on",
"qrsttttttttttttsrq",
"@@@@@@@@@@@@@@@@@@",
"@@@@@@@@@@@@@@@@@@",
"@@@@@@@@@@@@@@@@@@",
"@@@@@@@@@@@@@@@@@@"};
