/* XPM */
static char * maximize_active_xpm[] = {
"18 28 60 1",
" 	c None",
".	c #21252B",
"+	c #353B48",
"@	c #323644",
"#	c #2F3340",
"$	c #2E313E",
"%	c #2D313D",
"&	c #2D303C",
"*	c #1E2027",
"=	c #101113",
"-	c #0C0C0F",
";	c #1E2026",
">	c #21232B",
",	c #17181D",
"'	c #1C1E25",
")	c #1B1D25",
"!	c #17191D",
"~	c #1E2028",
"{	c #15171C",
"]	c #21232C",
"^	c #21242D",
"/	c #16171C",
"(	c #16181D",
"_	c #22242E",
":	c #606269",
"<	c #DDDEDF",
"[	c #63656B",
"}	c #66686E",
"|	c #ECECED",
"1	c #DFDFE0",
"2	c #EBEBEC",
"3	c #6A6C72",
"4	c #BDBEC1",
"5	c #4A4C54",
"6	c #BBBBBE",
"7	c #EAEAEB",
"8	c #B5B5B8",
"9	c #B2B3B6",
"0	c #17181E",
"a	c #C7C7C9",
"b	c #797B80",
"c	c #C6C6C9",
"d	c #EDEDED",
"e	c #E5E5E6",
"f	c #4F5159",
"g	c #AAAAAE",
"h	c #51535A",
"i	c #20222A",
"j	c #17191E",
"k	c #272932",
"l	c #1C1D23",
"m	c #1C1E26",
"n	c #1C1E24",
"o	c #363A45",
"p	c #2A2C34",
"q	c #131418",
"r	c #363A48",
"s	c #424653",
"t	c #4D505C",
"u	c #4F525E",
"..................",
"++++++++++++++++++",
"@@@@@@@@@@@@@@@@@@",
"@@@@@@@@@@@@@@@@@@",
"@@@@@@@@@@@@@@@@@@",
"@@@@@@@@@@@@@@@@@@",
"@#$%%%%%%%%%%%%$#@",
"&*=------------=;&",
">,'))))))))))))'!>",
"~{]^^^^^^^^^^^^]/*",
"~(_:<<<<<<<<<<[_(*",
"~(_}|1111111123_(*",
"~(_}24555555673_(*",
"~(_}28______973_0*",
"~(_}28______973_0*",
"~(_}28______973_0~",
"~(_}28______973_0~",
"~(_}2abbbbbbc73_0~",
"~(_}deeeeeeeed3_0~",
"~(_fggggggggggh_0~",
"i0^____________^ji",
"kl)mmmmmmmmmmmm)nk",
"op/qqqqqqqqqqqq/po",
"rstuuuuuuuuuuuutsr",
"@@@@@@@@@@@@@@@@@@",
"@@@@@@@@@@@@@@@@@@",
"@@@@@@@@@@@@@@@@@@",
"@@@@@@@@@@@@@@@@@@"};
