/* XPM */
static char * maximize_prelight_xpm[] = {
"18 28 61 1",
" 	c None",
".	c #21252B",
"+	c #353B48",
"@	c #323644",
"#	c #2F3340",
"$	c #2E313E",
"%	c #2D313D",
"&	c #2D303C",
"*	c #1E2027",
"=	c #101113",
"-	c #0C0C0F",
";	c #1E2026",
">	c #21232B",
",	c #17181D",
"'	c #1C1E25",
")	c #1B1D25",
"!	c #17191D",
"~	c #1E2028",
"{	c #15171C",
"]	c #21232C",
"^	c #21242D",
"/	c #16171C",
"(	c #16181D",
"_	c #22242E",
":	c #283E6D",
"<	c #3774EC",
"[	c #294070",
"}	c #294173",
"|	c #397AFA",
"1	c #3875ED",
"2	c #3979FA",
"3	c #2A4377",
"4	c #3979F9",
"5	c #3466CB",
"6	c #263556",
"7	c #3465C8",
"8	c #3462C1",
"9	c #3361BF",
"0	c #17181E",
"a	c #366AD4",
"b	c #2C4A85",
"c	c #3569D3",
"d	c #3A7AFB",
"e	c #3977F2",
"f	c #397AFB",
"g	c #26375C",
"h	c #325DB7",
"i	c #27385D",
"j	c #20222A",
"k	c #17191E",
"l	c #272932",
"m	c #1C1D23",
"n	c #1C1E26",
"o	c #1C1E24",
"p	c #363A45",
"q	c #2A2C34",
"r	c #131418",
"s	c #363A48",
"t	c #424653",
"u	c #4D505C",
"v	c #4F525E",
"..................",
"++++++++++++++++++",
"@@@@@@@@@@@@@@@@@@",
"@@@@@@@@@@@@@@@@@@",
"@@@@@@@@@@@@@@@@@@",
"@@@@@@@@@@@@@@@@@@",
"@#$%%%%%%%%%%%%$#@",
"&*=------------=;&",
">,'))))))))))))'!>",
"~{]^^^^^^^^^^^^]/*",
"~(_:<<<<<<<<<<[_(*",
"~(_}|1111111123_(*",
"~(_}45666666743_(*",
"~(_}48______943_0*",
"~(_}48______943_0*",
"~(_}48______943_0~",
"~(_}48______943_0~",
"~(_}4abbbbbbc43_0~",
"~(_}deeeeeeeef3_0~",
"~(_ghhhhhhhhhhi_0~",
"j0^____________^kj",
"lm)nnnnnnnnnnnn)ol",
"pq/rrrrrrrrrrrr/qp",
"stuvvvvvvvvvvvvuts",
"@@@@@@@@@@@@@@@@@@",
"@@@@@@@@@@@@@@@@@@",
"@@@@@@@@@@@@@@@@@@",
"@@@@@@@@@@@@@@@@@@"};
