/* XPM */
static char * menu_prelight_xpm[] = {
"18 28 69 1",
" 	c None",
".	c #21252B",
"+	c #353B48",
"@	c #323644",
"#	c #323643",
"$	c #2F3341",
"%	c #2C2F3C",
"&	c #2C303C",
"*	c #313543",
"=	c #2D303D",
"-	c #252832",
";	c #232630",
">	c #242731",
",	c #252833",
"'	c #2D313E",
")	c #272A34",
"!	c #2F303A",
"~	c #41444B",
"{	c #2F313A",
"]	c #282B36",
"^	c #2E313E",
"/	c #2F3340",
"(	c #292D38",
"_	c #31343D",
":	c #68696E",
"<	c #B0B1B4",
"[	c #B0B1B3",
"}	c #68686D",
"|	c #2A2D38",
"1	c #4C4D55",
"2	c #C4C4C4",
"3	c #FFFFFF",
"4	c #4B4D55",
"5	c #2A2D37",
"6	c #2E323E",
"7	c #2D303B",
"8	c #5E5F66",
"9	c #2C303A",
"0	c #2F333E",
"a	c #55575F",
"b	c #DADBDB",
"c	c #DADADA",
"d	c #55565E",
"e	c #2F323E",
"f	c #333745",
"g	c #343845",
"h	c #3E414C",
"i	c #7C7D80",
"j	c #D4D3D5",
"k	c #7C7C7F",
"l	c #3F414B",
"m	c #363A48",
"n	c #3E424F",
"o	c #3D414D",
"p	c #454852",
"q	c #5F5F67",
"r	c #3C404D",
"s	c #3E424E",
"t	c #565A65",
"u	c #585B66",
"v	c #5D616B",
"w	c #575A66",
"x	c #535662",
"y	c #3D414E",
"z	c #555964",
"A	c #6C6F79",
"B	c #6D707A",
"C	c #555864",
"D	c #3C404E",
"..................",
"++++++++++++++++++",
"@@@@@@@@@@@@@@@@@@",
"@@@@@@@@@@@@@@@@@@",
"@@@@@@@@@@@@@@@@@@",
"@@@@@@@@@@@@@@@@@@",
"@@@@@@@@@@@@@@@@@@",
"@@@@@@@@@@@@@@@@@@",
"@@@@@@@@@@@@@@@@@@",
"@@@@@@#$%&$#@@@@@@",
"@@@@@*=-;>,'*@@@@@",
"@@@@*')!~~{]^*@@@@",
"@@@@/(_:<[}_|$@@@@",
"@@@#^|1233245^#@@@",
"@@@*6783333896*@@@",
"@@@#/0ab33cde$#@@@",
"@@@@fghijjklg@@@@@",
"@@@@mnopqqprsm@@@@",
"@@@@fntuvvwxyf@@@@",
"@@@@@fyzABCDf@@@@@",
"@@@@@@@@@@@@@@@@@@",
"@@@@@@@@@@@@@@@@@@",
"@@@@@@@@@@@@@@@@@@",
"@@@@@@@@@@@@@@@@@@",
"@@@@@@@@@@@@@@@@@@",
"@@@@@@@@@@@@@@@@@@",
"@@@@@@@@@@@@@@@@@@",
"@@@@@@@@@@@@@@@@@@"};
