/* XPM */
static char * menu_active_xpm[] = {
"18 28 71 1",
" 	c None",
".	c #21252B",
"+	c #353B48",
"@	c #323644",
"#	c #323643",
"$	c #2F3341",
"%	c #2C2F3C",
"&	c #2C303C",
"*	c #313543",
"=	c #2D303D",
"-	c #252832",
";	c #232630",
">	c #242731",
",	c #252833",
"'	c #2D313E",
")	c #272A34",
"!	c #2F303A",
"~	c #41444B",
"{	c #2F313A",
"]	c #282B36",
"^	c #2E313E",
"/	c #2F3340",
"(	c #292D38",
"_	c #31343D",
":	c #65656A",
"<	c #8F8D8D",
"[	c #646469",
"}	c #2A2D38",
"|	c #474950",
"1	c #A6A3A0",
"2	c #C0BBB5",
"3	c #2A2D37",
"4	c #2E323E",
"5	c #2D303B",
"6	c #54555B",
"7	c #C4BFB8",
"8	c #C1BCB5",
"9	c #C3BEB7",
"0	c #54545B",
"a	c #2C303A",
"b	c #2F333E",
"c	c #4F5158",
"d	c #B2AEAA",
"e	c #B1ADA9",
"f	c #4E4F57",
"g	c #2F323E",
"h	c #333745",
"i	c #343845",
"j	c #3E414C",
"k	c #78787B",
"l	c #A5A29F",
"m	c #77777A",
"n	c #3F414B",
"o	c #363A48",
"p	c #3E424F",
"q	c #3D414D",
"r	c #454852",
"s	c #5F5F67",
"t	c #3C404D",
"u	c #3E424E",
"v	c #565A65",
"w	c #585B66",
"x	c #5D616B",
"y	c #575A66",
"z	c #535662",
"A	c #3D414E",
"B	c #555964",
"C	c #6C6F79",
"D	c #6D707A",
"E	c #555864",
"F	c #3C404E",
"..................",
"++++++++++++++++++",
"@@@@@@@@@@@@@@@@@@",
"@@@@@@@@@@@@@@@@@@",
"@@@@@@@@@@@@@@@@@@",
"@@@@@@@@@@@@@@@@@@",
"@@@@@@@@@@@@@@@@@@",
"@@@@@@@@@@@@@@@@@@",
"@@@@@@@@@@@@@@@@@@",
"@@@@@@#$%&$#@@@@@@",
"@@@@@*=-;>,'*@@@@@",
"@@@@*')!~~{]^*@@@@",
"@@@@/(_:<<[_}$@@@@",
"@@@#^}|1221|3^#@@@",
"@@@*45678890a4*@@@",
"@@@#/bcd88efg$#@@@",
"@@@@hijkllmni@@@@@",
"@@@@opqrssrtuo@@@@",
"@@@@hpvwxxyzAh@@@@",
"@@@@@hABCDEFh@@@@@",
"@@@@@@@@@@@@@@@@@@",
"@@@@@@@@@@@@@@@@@@",
"@@@@@@@@@@@@@@@@@@",
"@@@@@@@@@@@@@@@@@@",
"@@@@@@@@@@@@@@@@@@",
"@@@@@@@@@@@@@@@@@@",
"@@@@@@@@@@@@@@@@@@",
"@@@@@@@@@@@@@@@@@@"};
